<svg width="208" height="38" viewBox="0 0 208 38" fill="none" xmlns="http://www.w3.org/2000/svg">
<path d="M1.97067 29V9.36364H15.2022V12.7866H6.1223V17.4656H14.5215V20.8885H6.1223V25.5771H15.2406V29H1.97067ZM29.9568 9.36364H34.1084V22.1158C34.1084 23.5476 33.7665 24.8004 33.0825 25.8743C32.405 26.9482 31.4557 27.7855 30.2349 28.3864C29.014 28.9808 27.5917 29.2781 25.9682 29.2781C24.3382 29.2781 22.9128 28.9808 21.6919 28.3864C20.471 27.7855 19.5218 26.9482 18.8442 25.8743C18.1667 24.8004 17.8279 23.5476 17.8279 22.1158V9.36364H21.9795V21.761C21.9795 22.5089 22.1425 23.1737 22.4685 23.7553C22.8009 24.337 23.2675 24.794 23.8684 25.1264C24.4692 25.4588 25.1692 25.625 25.9682 25.625C26.7736 25.625 27.4735 25.4588 28.068 25.1264C28.6688 24.794 29.1322 24.337 29.4582 23.7553C29.7906 23.1737 29.9568 22.5089 29.9568 21.761V9.36364ZM36.8492 29V9.36364H44.5963C46.0793 9.36364 47.3449 9.62891 48.3932 10.1594C49.4479 10.6836 50.2501 11.4283 50.7998 12.3935C51.3559 13.3523 51.634 14.4805 51.634 15.7781C51.634 17.082 51.3527 18.2038 50.7902 19.1435C50.2277 20.0767 49.4128 20.7926 48.3453 21.2912C47.2842 21.7898 45.9994 22.0391 44.4909 22.0391H39.3037V18.7024H43.8197C44.6123 18.7024 45.2707 18.5937 45.7949 18.3764C46.319 18.1591 46.7089 17.8331 46.9646 17.3984C47.2267 16.9638 47.3577 16.4237 47.3577 15.7781C47.3577 15.1261 47.2267 14.5763 46.9646 14.1289C46.7089 13.6815 46.3158 13.3427 45.7853 13.1126C45.2611 12.8761 44.5995 12.7578 43.8005 12.7578H41.0008V29H36.8492ZM47.4536 20.0639L52.3339 29H47.7508L42.976 20.0639H47.4536ZM71.9377 19.1818C71.9377 21.3232 71.5318 23.1449 70.72 24.647C69.9146 26.1491 68.8152 27.2965 67.4217 28.0891C66.0346 28.8754 64.475 29.2685 62.7427 29.2685C60.9977 29.2685 59.4316 28.8722 58.0446 28.0795C56.6575 27.2869 55.5613 26.1396 54.7559 24.6374C53.9505 23.1353 53.5478 21.3168 53.5478 19.1818C53.5478 17.0405 53.9505 15.2188 54.7559 13.7166C55.5613 12.2145 56.6575 11.0703 58.0446 10.2841C59.4316 9.49148 60.9977 9.09517 62.7427 9.09517C64.475 9.09517 66.0346 9.49148 67.4217 10.2841C68.8152 11.0703 69.9146 12.2145 70.72 13.7166C71.5318 15.2188 71.9377 17.0405 71.9377 19.1818ZM67.7285 19.1818C67.7285 17.7947 67.5208 16.625 67.1053 15.6726C66.6962 14.7202 66.1177 13.9979 65.3699 13.5057C64.622 13.0135 63.7463 12.7674 62.7427 12.7674C61.7392 12.7674 60.8635 13.0135 60.1156 13.5057C59.3677 13.9979 58.786 14.7202 58.3706 15.6726C57.9615 16.625 57.7569 17.7947 57.7569 19.1818C57.7569 20.5689 57.9615 21.7386 58.3706 22.6911C58.786 23.6435 59.3677 24.3658 60.1156 24.858C60.8635 25.3501 61.7392 25.5962 62.7427 25.5962C63.7463 25.5962 64.622 25.3501 65.3699 24.858C66.1177 24.3658 66.6962 23.6435 67.1053 22.6911C67.5208 21.7386 67.7285 20.5689 67.7285 19.1818ZM90.7624 9.36364V29H87.1765L78.6335 16.641H78.4897V29H74.3381V9.36364H77.9815L86.4574 21.7131H86.63V9.36364H90.7624ZM93.5175 29V9.36364H106.749V12.7866H97.6692V17.4656H106.068V20.8885H97.6692V25.5771H106.787V29H93.5175ZM108.627 12.7866V9.36364H124.754V12.7866H118.742V29H114.639V12.7866H108.627ZM131.155 29L125.536 9.36364H130.072L133.322 23.0075H133.485L137.071 9.36364H140.954L144.53 23.0362H144.703L147.953 9.36364H152.488L146.87 29H142.824L139.084 16.1616H138.931L135.201 29H131.155ZM170.973 19.1818C170.973 21.3232 170.567 23.1449 169.755 24.647C168.95 26.1491 167.85 27.2965 166.457 28.0891C165.07 28.8754 163.51 29.2685 161.778 29.2685C160.033 29.2685 158.467 28.8722 157.08 28.0795C155.693 27.2869 154.596 26.1396 153.791 24.6374C152.986 23.1353 152.583 21.3168 152.583 19.1818C152.583 17.0405 152.986 15.2188 153.791 13.7166C154.596 12.2145 155.693 11.0703 157.08 10.2841C158.467 9.49148 160.033 9.09517 161.778 9.09517C163.51 9.09517 165.07 9.49148 166.457 10.2841C167.85 11.0703 168.95 12.2145 169.755 13.7166C170.567 15.2188 170.973 17.0405 170.973 19.1818ZM166.764 19.1818C166.764 17.7947 166.556 16.625 166.14 15.6726C165.731 14.7202 165.153 13.9979 164.405 13.5057C163.657 13.0135 162.781 12.7674 161.778 12.7674C160.774 12.7674 159.899 13.0135 159.151 13.5057C158.403 13.9979 157.821 14.7202 157.406 15.6726C156.997 16.625 156.792 17.7947 156.792 19.1818C156.792 20.5689 156.997 21.7386 157.406 22.6911C157.821 23.6435 158.403 24.3658 159.151 24.858C159.899 25.3501 160.774 25.5962 161.778 25.5962C162.781 25.5962 163.657 25.3501 164.405 24.858C165.153 24.3658 165.731 23.6435 166.14 22.6911C166.556 21.7386 166.764 20.5689 166.764 19.1818ZM173.373 29V9.36364H181.12C182.603 9.36364 183.869 9.62891 184.917 10.1594C185.972 10.6836 186.774 11.4283 187.324 12.3935C187.88 13.3523 188.158 14.4805 188.158 15.7781C188.158 17.082 187.877 18.2038 187.314 19.1435C186.752 20.0767 185.937 20.7926 184.869 21.2912C183.808 21.7898 182.523 22.0391 181.015 22.0391H175.828V18.7024H180.344C181.136 18.7024 181.795 18.5937 182.319 18.3764C182.843 18.1591 183.233 17.8331 183.489 17.3984C183.751 16.9638 183.882 16.4237 183.882 15.7781C183.882 15.1261 183.751 14.5763 183.489 14.1289C183.233 13.6815 182.84 13.3427 182.309 13.1126C181.785 12.8761 181.124 12.7578 180.325 12.7578H177.525V29H173.373ZM183.978 20.0639L188.858 29H184.275L179.5 20.0639H183.978ZM190.417 29V9.36364H194.569V18.0217H194.827L201.894 9.36364H206.87L199.583 18.1559L206.956 29H201.99L196.611 20.9268L194.569 23.4197V29H190.417Z" fill="#1E293B"/>
</svg>
