<svg width="226" height="21" viewBox="0 0 226 21" fill="none" xmlns="http://www.w3.org/2000/svg">
<path d="M4.45172e-05 19.9141V0.277698H1.79301V9.28089H12.9343V0.277698H14.7273V19.9141H12.9343V10.8917H1.79301V19.9141H4.45172e-05ZM23.6922 20.2496C22.8037 20.2496 21.9919 20.0771 21.2568 19.7319C20.5217 19.3803 19.9368 18.8754 19.5022 18.217C19.0675 17.5522 18.8502 16.7468 18.8502 15.8008C18.8502 15.0721 18.9876 14.4585 19.2625 13.9599C19.5373 13.4613 19.9272 13.0522 20.4322 12.7326C20.9372 12.413 21.5348 12.1605 22.2252 11.9751C22.9155 11.7898 23.6762 11.646 24.5071 11.5437C25.3317 11.4414 26.0285 11.3519 26.5973 11.2752C27.1726 11.1985 27.6105 11.0771 27.9109 10.9109C28.2113 10.7447 28.3616 10.4762 28.3616 10.1055V9.7603C28.3616 8.75675 28.0611 7.96733 27.4603 7.39204C26.8658 6.81037 26.0093 6.51953 24.8907 6.51953C23.8296 6.51953 22.9635 6.75284 22.2923 7.21946C21.6275 7.68608 21.1609 8.23579 20.8924 8.86861L19.2721 8.28374C19.6044 7.47834 20.0647 6.83594 20.6527 6.35653C21.2408 5.87074 21.8992 5.52237 22.6279 5.31143C23.3566 5.09411 24.0949 4.98544 24.8427 4.98544C25.4052 4.98544 25.9901 5.05895 26.5973 5.20597C27.211 5.35298 27.7799 5.60866 28.304 5.97301C28.8282 6.33097 29.2532 6.83274 29.5792 7.47834C29.9052 8.11754 30.0682 8.92933 30.0682 9.91371V19.9141H28.3616V17.5842H28.2561C28.0515 18.0188 27.7479 18.4407 27.3452 18.8498C26.9425 19.2589 26.4375 19.5945 25.8303 19.8565C25.2231 20.1186 24.5103 20.2496 23.6922 20.2496ZM23.9223 18.6868C24.8299 18.6868 25.6162 18.4854 26.2809 18.0827C26.9457 17.68 27.4571 17.1463 27.815 16.4815C28.1794 15.8104 28.3616 15.0721 28.3616 14.2667V12.1381C28.2337 12.2596 28.0196 12.3683 27.7191 12.4641C27.4251 12.56 27.0831 12.6463 26.6932 12.723C26.3097 12.7933 25.9262 12.854 25.5427 12.9052C25.1591 12.9563 24.814 13.0011 24.5071 13.0394C23.6762 13.1417 22.9667 13.3015 22.3786 13.5188C21.7905 13.7362 21.3399 14.0366 21.0267 14.4201C20.7135 14.7972 20.5569 15.283 20.5569 15.8775C20.5569 16.7724 20.8765 17.4659 21.5157 17.9581C22.1549 18.4439 22.9571 18.6868 23.9223 18.6868ZM36.3149 10.7095V19.9141H34.6082V5.18679H36.2669V7.49751H36.4203C36.7655 6.74325 37.3024 6.1392 38.0311 5.68537C38.7662 5.22514 39.6739 4.99503 40.7541 4.99503C41.7449 4.99503 42.6142 5.20277 43.3621 5.61825C44.1163 6.02734 44.7012 6.63139 45.1167 7.4304C45.5386 8.2294 45.7495 9.21058 45.7495 10.3739V19.9141H44.0428V10.4794C44.0428 9.27131 43.7041 8.3157 43.0265 7.61257C42.3553 6.90945 41.4541 6.55788 40.3227 6.55788C39.5492 6.55788 38.8621 6.72408 38.2612 7.05646C37.6604 7.38885 37.1842 7.86825 36.8326 8.49467C36.4874 9.1147 36.3149 9.85298 36.3149 10.7095ZM55.5461 20.2209C54.338 20.2209 53.2801 19.9013 52.3725 19.2621C51.4648 18.6229 50.7553 17.7312 50.2439 16.587C49.7389 15.4428 49.4865 14.1101 49.4865 12.5888C49.4865 11.0739 49.7389 9.74751 50.2439 8.60973C50.7553 7.46555 51.468 6.57706 52.3821 5.94425C53.2961 5.30504 54.3604 4.98544 55.5749 4.98544C56.4698 4.98544 57.2144 5.14524 57.8089 5.46484C58.4034 5.77805 58.8796 6.16797 59.2375 6.63459C59.5955 7.10121 59.8735 7.55504 60.0717 7.99609H60.2251V0.277698H61.9414V19.9141H60.273V17.1815H60.0717C59.8735 17.6289 59.5923 18.0891 59.2279 18.5621C58.8636 19.0288 58.381 19.4219 57.7801 19.7415C57.1857 20.0611 56.441 20.2209 55.5461 20.2209ZM55.7475 18.658C56.6999 18.658 57.5117 18.3991 58.1828 17.8814C58.854 17.3572 59.3654 16.6381 59.7169 15.7241C60.0749 14.8036 60.2539 13.7489 60.2539 12.56C60.2539 11.3839 60.0781 10.3452 59.7265 9.44389C59.375 8.53622 58.8636 7.8267 58.1924 7.31534C57.5213 6.79758 56.7063 6.53871 55.7475 6.53871C54.7631 6.53871 53.9321 6.80717 53.2546 7.3441C52.5834 7.87464 52.072 8.59375 51.7205 9.50142C51.3753 10.4091 51.2027 11.4286 51.2027 12.56C51.2027 13.7042 51.3785 14.7365 51.7301 15.657C52.0816 16.5774 52.593 17.3093 53.2642 17.8526C53.9417 18.3896 54.7695 18.658 55.7475 18.658ZM76.6974 8.41797L75.1345 8.85902C74.9811 8.41797 74.7638 8.01847 74.4826 7.66051C74.2013 7.30256 73.8338 7.01811 73.3799 6.80717C72.9325 6.59624 72.3764 6.49077 71.7116 6.49077C70.7144 6.49077 69.8963 6.72727 69.2571 7.20028C68.6179 7.6733 68.2983 8.28374 68.2983 9.0316C68.2983 9.66442 68.5156 10.179 68.9502 10.5753C69.3913 10.9652 70.0688 11.2752 70.9829 11.5053L73.2073 12.0518C74.441 12.3523 75.3647 12.8285 75.9783 13.4805C76.5983 14.1325 76.9083 14.9506 76.9083 15.935C76.9083 16.766 76.6782 17.5043 76.218 18.1499C75.7578 18.7955 75.1154 19.3036 74.2908 19.6744C73.4726 20.0387 72.5234 20.2209 71.4431 20.2209C70.0049 20.2209 68.8192 19.8981 67.886 19.2525C66.9527 18.6005 66.3551 17.6609 66.093 16.4336L67.7326 16.0309C67.9435 16.9066 68.3558 17.5682 68.9694 18.0156C69.5894 18.4631 70.4044 18.6868 71.4144 18.6868C72.5458 18.6868 73.4502 18.4343 74.1278 17.9293C74.8054 17.418 75.1441 16.7788 75.1441 16.0117C75.1441 15.4173 74.946 14.9187 74.5497 14.516C74.1534 14.1069 73.5525 13.8065 72.7471 13.6147L70.3405 13.0394C69.0621 12.7326 68.1161 12.2468 67.5024 11.582C66.8888 10.9173 66.582 10.0927 66.582 9.10831C66.582 8.29652 66.8025 7.58381 67.2436 6.97017C67.6846 6.35014 68.2919 5.86435 69.0653 5.51278C69.8387 5.16122 70.7208 4.98544 71.7116 4.98544C73.0603 4.98544 74.1374 5.29226 74.9428 5.90589C75.7546 6.51314 76.3394 7.3505 76.6974 8.41797ZM86.5995 20.2209C85.2252 20.2209 84.0363 19.9013 83.0327 19.2621C82.0292 18.6165 81.2525 17.7248 80.7028 16.587C80.1595 15.4428 79.8878 14.1261 79.8878 12.6367C79.8878 11.1538 80.1595 9.837 80.7028 8.68643C81.2525 7.52947 82.01 6.625 82.9752 5.97301C83.9468 5.31463 85.0686 4.98544 86.3406 4.98544C87.1396 4.98544 87.9098 5.13246 88.6513 5.42649C89.3928 5.71413 90.0576 6.15838 90.6456 6.75923C91.2401 7.35369 91.7099 8.10476 92.0551 9.01243C92.4003 9.91371 92.5728 10.9812 92.5728 12.2148V13.0586H81.0672V11.5533H90.8278C90.8278 10.6072 90.6361 9.7571 90.2525 9.00284C89.8754 8.24219 89.3481 7.64134 88.6705 7.20028C87.9993 6.75923 87.2227 6.53871 86.3406 6.53871C85.4074 6.53871 84.586 6.788 83.8765 7.28658C83.1669 7.78516 82.6108 8.44354 82.2081 9.26172C81.8118 10.0799 81.6105 10.9748 81.6041 11.9464V12.8477C81.6041 14.0174 81.8054 15.0401 82.2081 15.9158C82.6172 16.7852 83.1957 17.4595 83.9436 17.9389C84.6915 18.4183 85.5767 18.658 86.5995 18.658C87.2962 18.658 87.9066 18.5494 88.4308 18.332C88.9613 18.1147 89.4056 17.8239 89.7635 17.4595C90.1279 17.0888 90.4027 16.6829 90.5881 16.2418L92.2085 16.7692C91.9848 17.3892 91.6172 17.9613 91.1059 18.4854C90.6009 19.0096 89.9681 19.4315 89.2074 19.7511C88.4532 20.0643 87.5839 20.2209 86.5995 20.2209ZM102.135 5.18679V6.67294H95.1065V5.18679H102.135ZM97.3022 1.65838H99.0184V16.0692C99.0184 16.6829 99.1239 17.1655 99.3348 17.517C99.5458 17.8622 99.8206 18.1083 100.159 18.2553C100.498 18.396 100.859 18.4663 101.243 18.4663C101.467 18.4663 101.658 18.4535 101.818 18.4279C101.978 18.396 102.119 18.364 102.24 18.332L102.604 19.8757C102.438 19.9396 102.234 19.9972 101.991 20.0483C101.748 20.1058 101.447 20.1346 101.089 20.1346C100.463 20.1346 99.859 19.9972 99.2773 19.7223C98.702 19.4474 98.229 19.0384 97.8583 18.495C97.4875 17.9517 97.3022 17.2773 97.3022 16.4719V1.65838ZM124.621 5.18679C124.512 4.09375 124.03 3.22443 123.173 2.57883C122.317 1.93324 121.24 1.61044 119.942 1.61044C119.028 1.61044 118.223 1.76705 117.526 2.08026C116.835 2.39347 116.292 2.82812 115.896 3.38423C115.506 3.93395 115.311 4.56037 115.311 5.26349C115.311 5.78125 115.423 6.23509 115.647 6.625C115.87 7.01491 116.171 7.3505 116.548 7.63175C116.931 7.9066 117.353 8.14311 117.813 8.34126C118.28 8.53942 118.75 8.70561 119.223 8.83984L121.294 9.4343C121.92 9.60689 122.547 9.82741 123.173 10.0959C123.8 10.3643 124.372 10.7031 124.889 11.1122C125.414 11.5149 125.832 12.0103 126.145 12.5984C126.465 13.18 126.625 13.88 126.625 14.6982C126.625 15.7464 126.353 16.6893 125.81 17.5266C125.267 18.364 124.487 19.0288 123.47 19.521C122.454 20.0067 121.236 20.2496 119.817 20.2496C118.481 20.2496 117.321 20.0291 116.337 19.5881C115.352 19.1406 114.579 18.5238 114.017 17.7376C113.454 16.9513 113.138 16.0405 113.067 15.005H114.908C114.972 15.7784 115.228 16.4336 115.675 16.9705C116.123 17.5075 116.704 17.9165 117.42 18.1978C118.136 18.4727 118.935 18.6101 119.817 18.6101C120.795 18.6101 121.665 18.4471 122.425 18.1211C123.192 17.7887 123.793 17.3285 124.228 16.7404C124.669 16.146 124.889 15.4556 124.889 14.6694C124.889 14.0046 124.717 13.4485 124.372 13.0011C124.027 12.5472 123.544 12.1669 122.924 11.8601C122.31 11.5533 121.598 11.2816 120.786 11.0451L118.437 10.3548C116.896 9.89453 115.701 9.25852 114.851 8.44673C114.001 7.63494 113.576 6.59943 113.576 5.3402C113.576 4.28551 113.857 3.35866 114.419 2.55966C114.988 1.75426 115.755 1.12784 116.72 0.680397C117.692 0.226561 118.782 -0.000356138 119.99 -0.000356138C121.211 -0.000356138 122.291 0.223366 123.231 0.67081C124.17 1.11825 124.915 1.73508 125.465 2.52131C126.021 3.30114 126.318 4.18963 126.356 5.18679H124.621ZM136.309 20.2209C135.037 20.2209 133.912 19.8981 132.934 19.2525C131.962 18.6069 131.202 17.7152 130.652 16.5774C130.102 15.4332 129.827 14.1133 129.827 12.6175C129.827 11.109 130.102 9.78267 130.652 8.63849C131.202 7.48793 131.962 6.59304 132.934 5.95383C133.912 5.30824 135.037 4.98544 136.309 4.98544C137.581 4.98544 138.703 5.30824 139.674 5.95383C140.646 6.59943 141.406 7.49432 141.956 8.63849C142.512 9.78267 142.79 11.109 142.79 12.6175C142.79 14.1133 142.515 15.4332 141.966 16.5774C141.416 17.7152 140.652 18.6069 139.674 19.2525C138.703 19.8981 137.581 20.2209 136.309 20.2209ZM136.309 18.658C137.332 18.658 138.198 18.3832 138.907 17.8335C139.617 17.2837 140.154 16.5518 140.518 15.6378C140.889 14.7237 141.074 13.717 141.074 12.6175C141.074 11.5181 140.889 10.5082 140.518 9.58771C140.154 8.66726 139.617 7.92898 138.907 7.37287C138.198 6.81676 137.332 6.53871 136.309 6.53871C135.292 6.53871 134.426 6.81676 133.71 7.37287C133.001 7.92898 132.461 8.66726 132.09 9.58771C131.726 10.5082 131.544 11.5181 131.544 12.6175C131.544 13.717 131.726 14.7237 132.09 15.6378C132.461 16.5518 133.001 17.2837 133.71 17.8335C134.42 18.3832 135.286 18.658 136.309 18.658ZM148.244 0.277698V19.9141H146.537V0.277698H148.244ZM162.117 14.2859V5.18679H163.824V19.9141H162.117V17.4691H161.983C161.638 18.2234 161.092 18.853 160.344 19.358C159.596 19.8565 158.682 20.1058 157.602 20.1058C156.662 20.1058 155.828 19.9013 155.099 19.4922C154.37 19.0767 153.798 18.4695 153.383 17.6705C152.967 16.8714 152.76 15.8903 152.76 14.7269V5.18679H154.466V14.6214C154.466 15.772 154.805 16.6989 155.483 17.402C156.16 18.0987 157.029 18.4471 158.091 18.4471C158.755 18.4471 159.394 18.2873 160.008 17.9677C160.622 17.6481 161.127 17.1815 161.523 16.5678C161.919 15.9478 162.117 15.1871 162.117 14.2859ZM174.143 5.18679V6.67294H167.115V5.18679H174.143ZM169.311 1.65838H171.027V16.0692C171.027 16.6829 171.133 17.1655 171.344 17.517C171.555 17.8622 171.829 18.1083 172.168 18.2553C172.507 18.396 172.868 18.4663 173.252 18.4663C173.475 18.4663 173.667 18.4535 173.827 18.4279C173.987 18.396 174.127 18.364 174.249 18.332L174.613 19.8757C174.447 19.9396 174.242 19.9972 174 20.0483C173.757 20.1058 173.456 20.1346 173.098 20.1346C172.472 20.1346 171.868 19.9972 171.286 19.7223C170.711 19.4474 170.238 19.0384 169.867 18.495C169.496 17.9517 169.311 17.2773 169.311 16.4719V1.65838ZM178.038 19.9141V5.18679H179.755V19.9141H178.038ZM178.911 2.65554C178.559 2.65554 178.259 2.53729 178.01 2.30078C177.76 2.05788 177.636 1.76705 177.636 1.42827C177.636 1.08949 177.76 0.801846 178.01 0.565341C178.259 0.322442 178.559 0.200993 178.911 0.200993C179.263 0.200993 179.563 0.322442 179.812 0.565341C180.062 0.801846 180.186 1.08949 180.186 1.42827C180.186 1.76705 180.062 2.05788 179.812 2.30078C179.563 2.53729 179.263 2.65554 178.911 2.65554ZM189.992 20.2209C188.72 20.2209 187.595 19.8981 186.617 19.2525C185.646 18.6069 184.885 17.7152 184.335 16.5774C183.786 15.4332 183.511 14.1133 183.511 12.6175C183.511 11.109 183.786 9.78267 184.335 8.63849C184.885 7.48793 185.646 6.59304 186.617 5.95383C187.595 5.30824 188.72 4.98544 189.992 4.98544C191.264 4.98544 192.386 5.30824 193.358 5.95383C194.329 6.59943 195.09 7.49432 195.64 8.63849C196.196 9.78267 196.474 11.109 196.474 12.6175C196.474 14.1133 196.199 15.4332 195.649 16.5774C195.1 17.7152 194.336 18.6069 193.358 19.2525C192.386 19.8981 191.264 20.2209 189.992 20.2209ZM189.992 18.658C191.015 18.658 191.881 18.3832 192.591 17.8335C193.3 17.2837 193.837 16.5518 194.202 15.6378C194.572 14.7237 194.758 13.717 194.758 12.6175C194.758 11.5181 194.572 10.5082 194.202 9.58771C193.837 8.66726 193.3 7.92898 192.591 7.37287C191.881 6.81676 191.015 6.53871 189.992 6.53871C188.976 6.53871 188.11 6.81676 187.394 7.37287C186.685 7.92898 186.144 8.66726 185.774 9.58771C185.409 10.5082 185.227 11.5181 185.227 12.6175C185.227 13.717 185.409 14.7237 185.774 15.6378C186.144 16.5518 186.685 17.2837 187.394 17.8335C188.104 18.3832 188.97 18.658 189.992 18.658ZM201.927 10.7095V19.9141H200.22V5.18679H201.879V7.49751H202.033C202.378 6.74325 202.915 6.1392 203.643 5.68537C204.379 5.22514 205.286 4.99503 206.366 4.99503C207.357 4.99503 208.227 5.20277 208.974 5.61825C209.729 6.02734 210.314 6.63139 210.729 7.4304C211.151 8.2294 211.362 9.21058 211.362 10.3739V19.9141H209.655V10.4794C209.655 9.27131 209.316 8.3157 208.639 7.61257C207.968 6.90945 207.066 6.55788 205.935 6.55788C205.162 6.55788 204.474 6.72408 203.874 7.05646C203.273 7.38885 202.796 7.86825 202.445 8.49467C202.1 9.1147 201.927 9.85298 201.927 10.7095ZM225.751 8.41797L224.188 8.85902C224.035 8.41797 223.818 8.01847 223.536 7.66051C223.255 7.30256 222.887 7.01811 222.434 6.80717C221.986 6.59624 221.43 6.49077 220.765 6.49077C219.768 6.49077 218.95 6.72727 218.311 7.20028C217.672 7.6733 217.352 8.28374 217.352 9.0316C217.352 9.66442 217.569 10.179 218.004 10.5753C218.445 10.9652 219.123 11.2752 220.037 11.5053L222.261 12.0518C223.495 12.3523 224.418 12.8285 225.032 13.4805C225.652 14.1325 225.962 14.9506 225.962 15.935C225.962 16.766 225.732 17.5043 225.272 18.1499C224.811 18.7955 224.169 19.3036 223.345 19.6744C222.526 20.0387 221.577 20.2209 220.497 20.2209C219.059 20.2209 217.873 19.8981 216.94 19.2525C216.006 18.6005 215.409 17.6609 215.147 16.4336L216.786 16.0309C216.997 16.9066 217.409 17.5682 218.023 18.0156C218.643 18.4631 219.458 18.6868 220.468 18.6868C221.599 18.6868 222.504 18.4343 223.182 17.9293C223.859 17.418 224.198 16.7788 224.198 16.0117C224.198 15.4173 224 14.9187 223.603 14.516C223.207 14.1069 222.606 13.8065 221.801 13.6147L219.394 13.0394C218.116 12.7326 217.17 12.2468 216.556 11.582C215.943 10.9173 215.636 10.0927 215.636 9.10831C215.636 8.29652 215.856 7.58381 216.297 6.97017C216.738 6.35014 217.346 5.86435 218.119 5.51278C218.892 5.16122 219.775 4.98544 220.765 4.98544C222.114 4.98544 223.191 5.29226 223.996 5.90589C224.808 6.51314 225.393 7.3505 225.751 8.41797Z" fill="#1E293B"/>
</svg>
